<svg width="32" height="32" viewBox="0 0 32 32" fill="none" xmlns="http://www.w3.org/2000/svg">
<rect width="32" height="32" fill="black"/>
<path d="M3.4493 2.11242C3.00625 2.25074 2.42837 2.61383 2.10091 2.95386C1.37374 3.71461 0.935512 4.971 1.00775 6.07178C1.11369 7.76618 1.94199 9.03986 3.27112 9.5816C3.62266 9.71992 3.73824 9.73721 4.56172 9.76603C5.05773 9.77755 5.46225 9.8179 5.46225 9.84671C5.46225 9.87553 5.41891 10.0023 5.36112 10.1291C5.17812 10.5614 4.84584 11.6448 4.69656 12.2846C4.22943 14.319 4.15238 16.4745 4.47503 18.5665C4.64358 19.65 4.99994 21.0159 5.31296 21.7536C5.51522 22.2377 5.54893 22.2089 4.8025 22.2435C3.68526 22.2896 3.1122 22.5662 2.42356 23.3788C1.76381 24.1569 1.46524 25.0041 1.46524 26.0991C1.46524 26.8137 1.52784 27.148 1.75899 27.7531C1.99496 28.3583 2.24056 28.7444 2.63545 29.1306C3.0207 29.4994 3.43485 29.753 3.9116 29.8971C4.27278 30.0066 4.54245 30.0066 16.3457 29.995L28.409 29.9778L28.8135 29.8106C30.1185 29.2631 30.9853 27.8454 30.9998 26.2316C31.0094 25.0386 30.6964 24.1338 29.9885 23.3097C29.6369 22.8947 29.2372 22.6066 28.746 22.4164C28.3993 22.278 28.2693 22.2608 27.4603 22.2377C26.9594 22.2262 26.5549 22.1916 26.5549 22.1685C26.5549 22.1455 26.632 21.9207 26.7283 21.6729C26.9739 21.0274 27.2628 19.9958 27.4217 19.2005C27.9611 16.4975 27.7974 13.564 26.9642 11.0109C26.8487 10.6536 26.709 10.2617 26.656 10.1291C26.5983 10.0023 26.5549 9.87553 26.5549 9.84671C26.5549 9.8179 26.8535 9.77755 27.2195 9.76026C27.9611 9.72568 28.3271 9.62194 28.8905 9.27039C29.348 8.98222 29.9355 8.27911 30.1811 7.72583C30.6771 6.59047 30.6771 5.20153 30.1811 4.05464C29.9114 3.43221 29.3047 2.72333 28.7701 2.41212C28.0093 1.96258 29.035 1.99716 15.7293 2.00292C4.1572 2.00292 3.79121 2.00869 3.4493 2.11242ZM4.86029 3.12099C5.76564 3.40339 6.49762 4.39467 6.61319 5.48393C6.68061 6.1467 6.55059 6.90169 6.28573 7.37428C6.122 7.6682 5.78008 8.06587 5.49114 8.29063C4.33538 9.18394 2.73657 8.6249 2.11535 7.10917C1.64823 5.96228 1.85531 4.65402 2.64026 3.80106C3.25185 3.12676 4.07533 2.87894 4.86029 3.12099ZM17.1066 3.09218C19.134 3.35152 20.988 4.23907 22.6205 5.72598C23.1888 6.24468 24.1037 7.31664 24.5034 7.91602C26.5549 11.0455 27.3158 14.9991 26.5983 18.8374C26.4249 19.7883 26.0252 21.1081 25.6785 21.8919L25.5292 22.2262H22.3508H19.1725L19.5048 21.9438C20.805 20.8488 21.7296 19.1025 21.9993 17.241C22.0426 16.9528 22.0763 16.4226 22.0763 16.0595C22.0763 14.0539 21.4551 12.25 20.2993 10.8726C19.447 9.85824 18.5031 9.23581 17.2703 8.87272C16.9813 8.78627 16.3987 8.77475 11.7371 8.75746C8.86693 8.74593 6.5217 8.72288 6.5217 8.70559C6.5217 8.6883 6.62283 8.53845 6.74322 8.37708C6.99363 8.03705 7.34999 7.18985 7.44149 6.72303C7.52817 6.27349 7.51373 5.38595 7.41741 4.93642C7.29702 4.4062 7.04661 3.81259 6.76248 3.39187L6.51688 3.03455H11.5782C14.7372 3.03455 16.8128 3.0576 17.1066 3.09218ZM27.8985 3.12099C28.3175 3.25355 28.6786 3.50137 28.9868 3.87022C29.4636 4.44078 29.6851 5.0805 29.6851 5.88736C29.6851 6.67116 29.4588 7.29359 28.9676 7.88144C28.409 8.54422 27.9081 8.74017 26.7475 8.74017H26.0493L25.8085 8.2964C24.7298 6.29655 23.0684 4.55028 21.1903 3.43221L20.5161 3.03455H24.0797C27.0124 3.03455 27.6818 3.05184 27.8985 3.12099ZM12.4931 10.0715C11.7371 10.7112 11.0147 11.714 10.5861 12.7341C10.1383 13.7945 9.94083 14.7916 9.94083 16.0019C9.94083 18.336 10.8028 20.405 12.3487 21.7997C12.8254 22.2319 13.7548 22.7967 14.2749 22.9696C15.1707 23.2636 15.1321 23.2636 20.492 23.2636C23.2465 23.2636 25.4955 23.2809 25.4955 23.2981C25.4955 23.3154 25.3992 23.4653 25.2788 23.6266C25.0091 23.9955 24.7105 24.6698 24.5998 25.1654C24.489 25.6553 24.489 26.5601 24.5949 27.0673C24.7057 27.5802 24.9609 28.1796 25.2499 28.6061L25.4955 28.9692H20.4005C15.527 28.9692 14.9106 28.9519 14.1305 28.7905C10.8076 28.1162 7.83156 25.4651 6.30499 21.8228C5.76082 20.526 5.41409 19.1889 5.24073 17.7539C5.12997 16.8202 5.12997 15.1604 5.24073 14.2441C5.40446 12.8897 5.78971 11.4143 6.28573 10.2213L6.47354 9.77755H9.66152H12.8447L12.4931 10.0715ZM17.2847 9.9735C18.7631 10.4288 19.9815 11.616 20.6557 13.2528C21.0169 14.1288 21.1614 14.8204 21.1951 15.829C21.2143 16.4802 21.2047 16.705 21.118 17.2006C20.9591 18.1227 20.6653 18.9238 20.2319 19.6327C19.1677 21.3617 17.5448 22.3011 15.7678 22.2089C15.0647 22.1685 14.5639 22.036 13.9523 21.719C13.3166 21.3905 12.8688 21.0159 12.3005 20.3243C11.5396 19.4022 11.1159 18.4685 10.904 17.2121C10.8125 16.6992 10.8028 16.486 10.8221 15.8002C10.851 14.8665 10.9521 14.3075 11.2266 13.5467C11.6022 12.5151 12.3101 11.4835 13.0662 10.8726C13.6874 10.3712 14.5302 9.9735 15.267 9.83518C15.7774 9.74297 16.7454 9.80637 17.2847 9.9735ZM6.31462 23.886C6.70951 24.5949 7.4126 25.5919 7.89898 26.1452C8.84767 27.2114 10.1335 28.2488 11.1592 28.7732L11.4867 28.9404L7.93751 28.9577C4.03681 28.9692 4.07052 28.9749 3.56487 28.6234C2.7751 28.0816 2.33206 27.1826 2.33206 26.1221C2.33206 25.3441 2.51505 24.7851 2.95328 24.2203C3.22777 23.8745 3.49745 23.6497 3.82973 23.4883C4.2198 23.3039 4.40761 23.2751 5.22146 23.2693H5.96789L6.31462 23.886ZM28.173 23.327C28.9772 23.4999 29.7333 24.2664 30.0029 25.177C30.4604 26.7273 29.6899 28.4678 28.3608 28.8827C26.3719 29.4994 24.6912 26.9693 25.6496 24.8081C25.8807 24.2894 26.266 23.8399 26.6994 23.5921C27.2339 23.2866 27.6433 23.2117 28.173 23.327Z" fill="#00FFD1"/>
</svg>
